<svg height="512pt" viewBox="-43 0 512 512" width="512pt" xmlns="http://www.w3.org/2000/svg"><path d="m356.679688 326.625-64-64c-6.238282-6.242188-6.238282-16.386719 0-22.625 6.242187-6.238281 16.382812-6.238281 22.625 0l41.375 41.375 41.375-41.375c6.242187-6.238281 16.386718-6.238281 22.625 0 6.242187 6.238281 6.242187 16.382812 0 22.625zm0 0" fill="#81c784"/><path d="m110.054688 272-41.375-41.375-41.375 41.375c-6.242188 6.238281-16.382813 6.238281-22.625 0-6.238282-6.238281-6.238282-16.382812 0-22.625l64-64 64 64c6.242187 6.242188 6.242187 16.386719 0 22.625-6.253907 6.238281-16.382813 6.238281-22.625 0zm0 0" fill="#ff7043"/><path d="m372.679688 160h-32c0-70.574219-57.421876-128-128-128-70.574219 0-128 57.425781-128 128h-32c0-88.222656 71.777343-160 160-160 88.222656 0 160 71.777344 160 160zm0 0" fill="#66bb6a"/><path d="m212.679688 512c-88.222657 0-160-71.777344-160-160h32c0 70.574219 57.425781 128 128 128 70.578124 0 128-57.425781 128-128h32c0 88.222656-71.777344 160-160 160zm0 0" fill="#e64a19"/><path d="m340.679688 192h32v32h-32zm0 0" fill="#81c784"/><path d="m52.679688 288h32v32h-32zm0 0" fill="#ff7043"/></svg>